<?xml version="1.0" encoding="iso-8859-1"?>
<!-- Generator: Adobe Illustrator 18.0.0, SVG Export Plug-In . SVG Version: 6.00 Build 0)  -->
<!DOCTYPE svg PUBLIC "-//W3C//DTD SVG 1.1//EN" "http://www.w3.org/Graphics/SVG/1.1/DTD/svg11.dtd">
<svg version="1.1" id="Capa_1" xmlns="http://www.w3.org/2000/svg" xmlns:xlink="http://www.w3.org/1999/xlink" x="0px" y="0px"
	 viewBox="0 0 481.604 481.604" style="enable-background:new 0 0 481.604 481.604;" xml:space="preserve">
<g>
	<path d="M457.397,432.366h-10.211V198.23h-0.008c-12.528,0-24.398-4.085-34.292-10.987c-6.642,4.673-14.298,8.139-22.77,9.829
		c-3.905,0.77-7.855,1.158-11.744,1.158c-12.734,0-24.588-4.205-34.465-11.155c-8.244,5.785-17.9,9.806-28.667,10.885
		c-1.911,0.175-3.791,0.27-5.681,0.27c-12.79,0-24.556-4.126-34.338-10.948c-9.767,6.847-21.604,10.948-34.418,10.948
		c-12.822,0-24.652-4.093-34.419-10.948c-9.782,6.823-21.548,10.948-34.346,10.948c-1.89,0-3.771-0.094-6.008-0.3
		c-10.433-1.04-20.064-4.935-28.427-10.807c-9.853,6.927-21.676,11.107-34.378,11.107c-3.872,0-7.815-0.388-11.774-1.165
		c-8.466-1.683-16.106-5.149-22.747-9.815c-9.886,6.895-21.747,10.98-34.284,10.98h-0.008v234.136h-10.21
		c-13.36,0-24.192,10.83-24.192,24.191c0,13.36,10.832,24.191,24.192,24.191h250.203v-48.383V297.4
		c0-13.544,10.973-24.525,24.523-24.525h85.998c13.552,0,24.533,10.981,24.533,24.525v134.966v48.383h47.938
		c13.36,0,24.191-10.832,24.191-24.191C481.588,443.196,470.757,432.366,457.397,432.366z M231.71,244.057v105.676
		c0,6.339-5.141,11.472-11.472,11.472H92.031c-6.339,0-11.472-5.133-11.472-11.472v-13.322l118.726-103.833h20.955
		C226.569,232.578,231.71,237.718,231.71,244.057z M174.966,232.578l-94.407,82.563v-24.739l66.155-57.824H174.966z M80.558,244.057
		c0-6.339,5.133-11.479,11.472-11.479h30.357l-41.829,36.56V244.057z"/>
	<path d="M1.447,128.18c-5.434,18.201,4.912,37.362,23.121,42.805c3.284,0.975,6.601,1.451,9.861,1.451
		c14.805,0,28.483-9.655,32.943-24.572l1.801-6.022c1.222,10.957,7.632,20.7,17.201,26.119c3.077,1.746,6.451,3.071,10.115,3.801
		c2.269,0.453,4.523,0.674,6.753,0.674c16.065,0,30.435-11.329,33.695-27.698l0.85-4.228c0.832,11.678,7.608,21.891,17.51,27.451
		c3.999,2.246,8.442,3.809,13.296,4.293c1.159,0.119,2.309,0.174,3.452,0.174c17.464,0,32.428-13.25,34.189-30.998l0.253-2.53
		c0.317,12.52,7.371,23.262,17.606,29.022c4.966,2.785,10.599,4.506,16.709,4.506c6.101,0,11.749-1.721,16.709-4.514
		c10.244-5.761,17.297-16.519,17.606-29.055l0.253,2.571c1.77,17.749,16.726,30.998,34.196,30.998c1.136,0,2.286-0.055,3.443-0.174
		c4.857-0.484,9.308-2.039,13.29-4.285c9.91-5.554,16.678-15.756,17.526-27.428l0.833,4.197
		c3.262,16.369,17.631,27.698,33.696,27.698c2.229,0,4.491-0.221,6.76-0.674c3.665-0.729,7.037-2.054,10.108-3.801
		c9.56-5.419,15.979-15.162,17.209-26.119l1.793,6.022c4.46,14.925,18.145,24.572,32.952,24.572c3.261,0,6.578-0.476,9.861-1.451
		c18.209-5.443,28.546-24.604,23.121-42.805l-29.468-98.644c-5.086-17.019-20.74-28.681-38.497-28.681H69.41
		c-17.755,0-33.41,11.662-38.496,28.681L1.447,128.18z"/>
	<path d="M305.744,370.274c-7.37,0-13.345,5.975-13.345,13.345c0,7.379,5.975,13.346,13.345,13.346
		c7.379,0,13.346-5.967,13.346-13.346C319.09,376.249,313.123,370.274,305.744,370.274z"/>
</g>
<g>
</g>
<g>
</g>
<g>
</g>
<g>
</g>
<g>
</g>
<g>
</g>
<g>
</g>
<g>
</g>
<g>
</g>
<g>
</g>
<g>
</g>
<g>
</g>
<g>
</g>
<g>
</g>
<g>
</g>
</svg>
