<?xml version="1.0" encoding="utf-8"?>
<!-- Generator: Adobe Illustrator 16.0.0, SVG Export Plug-In . SVG Version: 6.00 Build 0)  -->
<!DOCTYPE svg PUBLIC "-//W3C//DTD SVG 1.1//EN" "http://www.w3.org/Graphics/SVG/1.1/DTD/svg11.dtd">
<svg version="1.1" id="icons" xmlns="http://www.w3.org/2000/svg" xmlns:xlink="http://www.w3.org/1999/xlink" x="0px" y="0px"
	 width="64px" height="64px" viewBox="0 0 64 64" enable-background="new 0 0 64 64" xml:space="preserve">
<g>
	<g>
		<g>
			<rect x="4.005" y="37.995" fill="#94C1FF" width="8.99" height="3"/>
		</g>
	</g>
	<g>
		<g>
			<rect x="4.005" y="34.995" fill="#5C9EFF" width="8.99" height="3"/>
		</g>
	</g>
	<g>
		<g>
			<polygon fill="#D7E9FF" points="4.005,40.995 4.005,50.995 1.005,50.995 1.005,15.995 4.005,15.995 4.005,34.995 4.005,37.995 
							"/>
		</g>
	</g>
	<g>
		<g>
			<path fill="#FFFFFF" d="M12.995,20.005h12.01c0,1.66-1.35,3-3,3h-6.01C14.345,23.005,12.995,21.665,12.995,20.005z"/>
		</g>
	</g>
	<g>
		<g>
			<rect x="30.495" y="15.995" fill="#FFFFFF" width="3" height="7.01"/>
		</g>
	</g>
	<g>
		<g>
			<path fill="#FFFFFF" d="M38.995,20.005h12.01c0,1.66-1.35,3-3,3h-6.01C40.345,23.005,38.995,21.665,38.995,20.005z"/>
		</g>
	</g>
	<g>
		<g>
			<polygon fill="#D7E9FF" points="62.995,15.995 62.995,50.995 59.995,50.995 59.995,40.995 59.995,37.995 59.995,34.995 
				59.995,15.995 			"/>
		</g>
	</g>
	<g>
		<g>
			<rect x="16.005" y="26.005" fill="#94C1FF" width="32" height="4.99"/>
		</g>
	</g>
	<g>
		<g>
			<polygon fill="#D7E9FF" points="16.005,30.995 16.005,50.995 12.995,50.995 12.995,40.995 12.995,37.995 12.995,34.995 
				12.995,26.005 16.005,26.005 			"/>
		</g>
	</g>
	<g>
		<g>
			<rect x="51.024" y="34.995" fill="#5C9EFF" width="8.971" height="3"/>
		</g>
	</g>
	<g>
		<g>
			<rect x="51.024" y="37.995" fill="#94C1FF" width="8.971" height="3"/>
		</g>
	</g>
	<g>
		<g>
			<polygon fill="#D7E9FF" points="51.024,40.995 51.024,50.995 48.005,50.995 48.005,30.995 48.005,26.005 51.024,26.005 
				51.024,34.995 51.024,37.995 			"/>
		</g>
	</g>
	<g>
		<g>
			<polygon fill="#D7E9FF" points="52.985,23.005 52.985,26.005 51.024,26.005 51.024,25.985 48.005,25.985 48.005,26.005 
				16.005,26.005 16.005,25.985 12.995,25.985 12.995,26.005 10.995,26.005 10.995,23.005 15.995,23.005 22.005,23.005 
				30.495,23.005 33.495,23.005 41.995,23.005 48.005,23.005 			"/>
		</g>
	</g>
</g>
<g>
	<g>
		<g>
			<g>
				<path fill="#116FFF" d="M52.99,27H10.992c-0.553,0-1-0.448-1-1v-3c0-0.552,0.447-1,1-1H52.99c0.553,0,1,0.448,1,1v3
					C53.99,26.552,53.543,27,52.99,27z M11.992,25H51.99v-1H11.992V25z"/>
			</g>
		</g>
		<g>
			<g>
				<path fill="#116FFF" d="M16.009,51.998h-3.017c-0.553,0-1-0.447-1-1V25.982c0-0.552,0.447-1,1-1h3.017c0.553,0,1,0.448,1,1
					v25.016C17.009,51.551,16.562,51.998,16.009,51.998z M13.992,49.998h1.017V26.982h-1.017V49.998z"/>
			</g>
		</g>
		<g>
			<g>
				<path fill="#116FFF" d="M51.022,51.998h-3.017c-0.553,0-1-0.447-1-1V25.982c0-0.552,0.447-1,1-1h3.017c0.553,0,1,0.448,1,1
					v25.016C52.022,51.551,51.575,51.998,51.022,51.998z M49.006,49.998h1.017V26.982h-1.017V49.998z"/>
			</g>
		</g>
		<g>
			<g>
				<path fill="#116FFF" d="M48.006,31.998H16.009c-0.553,0-1-0.448-1-1s0.447-1,1-1h31.997c0.553,0,1,0.448,1,1
					S48.559,31.998,48.006,31.998z"/>
			</g>
		</g>
		<g>
			<g>
				<path fill="#116FFF" d="M4.008,51.998H1.007c-0.553,0-1-0.447-1-1v-35c0-0.552,0.447-1,1-1h3.001c0.553,0,1,0.448,1,1v35
					C5.008,51.551,4.561,51.998,4.008,51.998z M2.007,49.998h1.001v-33H2.007V49.998z"/>
			</g>
		</g>
		<g>
			<g>
				<path fill="#116FFF" d="M12.992,41.998H4.008c-0.553,0-1-0.447-1-1s0.447-1,1-1h8.984c0.553,0,1,0.447,1,1
					S13.545,41.998,12.992,41.998z"/>
			</g>
		</g>
		<g>
			<g>
				<path fill="#116FFF" d="M12.992,38.998H4.008c-0.553,0-1-0.447-1-1s0.447-1,1-1h8.984c0.553,0,1,0.447,1,1
					S13.545,38.998,12.992,38.998z"/>
			</g>
		</g>
		<g>
			<g>
				<path fill="#116FFF" d="M12.992,35.998H4.008c-0.553,0-1-0.447-1-1s0.447-1,1-1h8.984c0.553,0,1,0.447,1,1
					S13.545,35.998,12.992,35.998z"/>
			</g>
		</g>
		<g>
			<g>
				<path fill="#116FFF" d="M62.993,51.998h-3.001c-0.553,0-1-0.447-1-1v-35c0-0.552,0.447-1,1-1h3.001c0.553,0,1,0.448,1,1v35
					C63.993,51.551,63.546,51.998,62.993,51.998z M60.992,49.998h1.001v-33h-1.001V49.998z"/>
			</g>
		</g>
		<g>
			<g>
				<path fill="#116FFF" d="M59.992,41.998h-8.984c-0.553,0-1-0.447-1-1s0.447-1,1-1h8.984c0.553,0,1,0.447,1,1
					S60.545,41.998,59.992,41.998z"/>
			</g>
		</g>
		<g>
			<g>
				<path fill="#116FFF" d="M59.992,38.998h-8.984c-0.553,0-1-0.447-1-1s0.447-1,1-1h8.984c0.553,0,1,0.447,1,1
					S60.545,38.998,59.992,38.998z"/>
			</g>
		</g>
		<g>
			<g>
				<path fill="#116FFF" d="M59.992,35.998h-8.984c-0.553,0-1-0.447-1-1s0.447-1,1-1h8.984c0.553,0,1,0.447,1,1
					S60.545,35.998,59.992,35.998z"/>
			</g>
		</g>
	</g>
	<g>
		<g>
			<g>
				<path fill="#116FFF" d="M30.496,24c-0.553,0-1-0.448-1-1v-7.002c0-0.552,0.447-1,1-1s1,0.448,1,1V23
					C31.496,23.552,31.049,24,30.496,24z"/>
			</g>
		</g>
		<g>
			<g>
				<path fill="#116FFF" d="M33.497,16.998h-3.001c-0.553,0-1-0.448-1-1s0.447-1,1-1h3.001c0.553,0,1,0.448,1,1
					S34.05,16.998,33.497,16.998z"/>
			</g>
		</g>
		<g>
			<g>
				<path fill="#116FFF" d="M33.497,24c-0.553,0-1-0.448-1-1v-7.002c0-0.552,0.447-1,1-1s1,0.448,1,1V23
					C34.497,23.552,34.05,24,33.497,24z"/>
			</g>
		</g>
		<g>
			<g>
				<path fill="#116FFF" d="M31.997,15.002c-0.553,0-1-0.448-1-1v-1c0-0.552,0.447-1,1-1s1,0.448,1,1v1
					C32.997,14.554,32.55,15.002,31.997,15.002z"/>
			</g>
		</g>
	</g>
	<g>
		<g>
			<g>
				<path fill="#116FFF" d="M16,24.003c-2.206,0-4-1.795-4-4.001c0-0.552,0.447-1,1-1s1,0.448,1,1c0,1.104,0.897,2.001,2,2.001
					c0.553,0,1,0.448,1,1S16.553,24.003,16,24.003z"/>
			</g>
		</g>
		<g>
			<g>
				<path fill="#116FFF" d="M22.001,24.003c-0.553,0-1-0.448-1-1s0.447-1,1-1c1.103,0,2-0.897,2-2.001c0-0.552,0.447-1,1-1
					s1,0.448,1,1C26.001,22.208,24.207,24.003,22.001,24.003z"/>
			</g>
		</g>
		<g>
			<g>
				<path fill="#116FFF" d="M26.001,21.002h-14c-0.553,0-1-0.448-1-1s0.447-1,1-1h14c0.553,0,1,0.448,1,1
					S26.554,21.002,26.001,21.002z"/>
			</g>
		</g>
	</g>
	<g>
		<g>
			<g>
				<path fill="#116FFF" d="M42,24.003c-2.206,0-4-1.795-4-4.001c0-0.552,0.447-1,1-1s1,0.448,1,1c0,1.104,0.897,2.001,2,2.001
					c0.553,0,1,0.448,1,1S42.553,24.003,42,24.003z"/>
			</g>
		</g>
		<g>
			<g>
				<path fill="#116FFF" d="M48.001,24.003c-0.553,0-1-0.448-1-1s0.447-1,1-1c1.103,0,2-0.897,2-2.001c0-0.552,0.447-1,1-1
					s1,0.448,1,1C52.001,22.208,50.207,24.003,48.001,24.003z"/>
			</g>
		</g>
		<g>
			<g>
				<path fill="#116FFF" d="M52.001,21.002h-14c-0.553,0-1-0.448-1-1s0.447-1,1-1h14c0.553,0,1,0.448,1,1
					S52.554,21.002,52.001,21.002z"/>
			</g>
		</g>
	</g>
</g>
</svg>
